<svg xmlns="http://www.w3.org/2000/svg" xml:space="preserve" style="fill-rule:evenodd;clip-rule:evenodd;stroke-linejoin:round;stroke-miterlimit:2" viewBox="0 0 432 180">
  <path d="M387.262 15.331v144.408c0 5.994-4.674 10.861-10.431 10.861H14.756c-5.757 0-10.431-4.867-10.431-10.861V15.331c0-5.995 4.674-10.862 10.431-10.862h362.075c5.757 0 10.431 4.867 10.431 10.862" style="fill:#1b1c1c" transform="matrix(1.12812 0 0 1.08348 -4.879 -4.842)"/>
  <path d="M16.192 36.177h29.989l30.434 37.277 30.06-37.359 30.35.186.12 102.815-30.271-.405-.481-57.291-30.128 36.235-29.753-37.241-.023 58.565-30.259.11z" style="fill:#fff" transform="translate(21.906 2.253)scale(.99397)"/>
  <path d="m189.526 36.372 30.227.005.411 52.839 29.818-.04-44.946 50.122-45.192-49.952 30.119-.217z" style="fill:#fff" transform="translate(19.906 2.253)scale(.99397)"/>
  <path d="M281.255 15.345h33.667v8.134l-19.31 18.662h20.437v9.502h-36.162V42.62l18.683-17.773h-17.315z" style="fill:#ddff6b;fill-rule:nonzero" transform="matrix(3.01308 0 0 2.81716 -558.281 -5.228)"/>
</svg>
